<?xml version="1.0" encoding="utf-8"?>
<!-- Generator: Adobe Illustrator 24.0.1, SVG Export Plug-In . SVG Version: 6.00 Build 0)  -->
<svg version="1.1" id="Layer_1" xmlns="http://www.w3.org/2000/svg" xmlns:xlink="http://www.w3.org/1999/xlink" x="0px" y="0px"
	 viewBox="0 0 1080 1080" style="enable-background:new 0 0 1080 1080;" xml:space="preserve">
<style type="text/css">
	.st0{fill-rule:evenodd;clip-rule:evenodd;fill:#EC2B89;}
	.st1{fill-rule:evenodd;clip-rule:evenodd;fill:#00EFE8;}
	.st2{fill-rule:evenodd;clip-rule:evenodd;fill:#FFFFFF;}
	.st3{fill-rule:evenodd;clip-rule:evenodd;fill:#4D4C4B;}
	.st4{fill-rule:evenodd;clip-rule:evenodd;fill:#5FB74E;}
	.st5{fill-rule:evenodd;clip-rule:evenodd;fill:#89C45F;}
	.st6{fill-rule:evenodd;clip-rule:evenodd;fill:#4A9E4B;}
	.st7{fill-rule:evenodd;clip-rule:evenodd;fill:#FDF8B4;}
	.st8{fill-rule:evenodd;clip-rule:evenodd;fill:#FCD066;}
	.st9{fill-rule:evenodd;clip-rule:evenodd;fill:#EEEFEE;}
	.st10{fill-rule:evenodd;clip-rule:evenodd;fill:#FEFEFE;}
	.st11{fill-rule:evenodd;clip-rule:evenodd;fill:#EE4D2D;}
	.st12{fill-rule:evenodd;clip-rule:evenodd;fill:url(#SVGID_1_);}
	.st13{fill-rule:evenodd;clip-rule:evenodd;fill:url(#SVGID_2_);}
	.st14{fill:#94BF3E;}
	.st15{fill:#FFFFFF;}
	.st16{fill:#2AAA5A;}
	.st17{fill:#E2127F;}
	.st18{fill:#F19123;}
	.st19{fill:#DF2228;}
	.st20{fill:#1E93D1;}
	.st21{fill:url(#SVGID_3_);}
	.st22{fill-rule:evenodd;clip-rule:evenodd;fill:url(#SVGID_4_);filter:url(#Adobe_OpacityMaskFilter);}
	.st23{mask:url(#id0_2_);fill:url(#SVGID_5_);}
	.st24{fill:url(#SVGID_6_);}
</style>
<g>
	<path class="st0" d="M978.8,311.4c-123.2,0-223.1-99.9-223.1-223.1H588.4v647.2c0,75.1-61.1,136.3-136.3,136.3
		s-136.3-61.1-136.3-136.3S377,599.3,452.2,599.3c14,0,30.1,2,42.7,6V435c-14-2-28.4-3-42.7-3c-167.6,0-303.6,135.9-303.6,303.6
		s135.9,303.6,303.6,303.6s303.6-135.9,303.6-303.6V392.9c60.8,49.4,138.3,79.5,223.1,79.5L978.8,311.4L978.8,311.4z"/>
	<path class="st1" d="M931.4,264c-123.2,0-223.1-99.9-223.1-223.1H541v647.2c0,75.1-61.1,136.3-136.3,136.3s-136.3-61.1-136.3-136.3
		s61.1-136.3,136.3-136.3c14,0,30.1,2,42.7,6V387.5c-14-2-28.4-3-42.7-3c-167.6,0-303.6,135.9-303.6,303.6s135.9,303.6,303.6,303.6
		s303.6-135.9,303.6-303.6V345.5c60.8,49.4,138.3,79.5,223.1,79.5L931.4,264L931.4,264z"/>
	<path class="st2" d="M931.4,306.4c-53.8-11.7-100.5-42.7-132.2-85.8c-42.7-31.7-74.1-78.1-85.8-132.2H588.4v647.2
		c0,75.1-61.1,136.3-136.3,136.3c-49.8,0-93.2-26.7-117.2-66.5c-39.7-23.7-66.5-67.5-66.5-117.2c0-75.1,61.1-136.3,136.3-136.3
		c14,0,30.1,2,42.7,6V432c-165.6,2.3-298.9,137.3-298.9,303.6c0,71.8,25,137.6,66.5,189.7c52.1,41.7,117.9,66.5,189.7,66.5
		c167.6,0,303.6-135.9,303.6-303.6V345.5c60.8,49.4,138.3,79.5,223.1,79.5L931.4,306.4L931.4,306.4z"/>
</g>
</svg>
