<?xml version="1.0" encoding="utf-8"?>
<!-- Generator: Adobe Illustrator 24.0.1, SVG Export Plug-In . SVG Version: 6.00 Build 0)  -->
<svg version="1.1" id="Layer_1" xmlns="http://www.w3.org/2000/svg" xmlns:xlink="http://www.w3.org/1999/xlink" x="0px" y="0px"
	 viewBox="0 0 1080 1080" style="enable-background:new 0 0 1080 1080;" xml:space="preserve">
<style type="text/css">
	.st0{fill-rule:evenodd;clip-rule:evenodd;fill:#EC2B89;}
	.st1{fill-rule:evenodd;clip-rule:evenodd;fill:#00EFE8;}
	.st2{fill-rule:evenodd;clip-rule:evenodd;fill:#FFFFFF;}
	.st3{fill-rule:evenodd;clip-rule:evenodd;fill:#4D4C4B;}
	.st4{fill-rule:evenodd;clip-rule:evenodd;fill:#5FB74E;}
	.st5{fill-rule:evenodd;clip-rule:evenodd;fill:#89C45F;}
	.st6{fill-rule:evenodd;clip-rule:evenodd;fill:#4A9E4B;}
	.st7{fill-rule:evenodd;clip-rule:evenodd;fill:#FDF8B4;}
	.st8{fill-rule:evenodd;clip-rule:evenodd;fill:#FCD066;}
	.st9{fill-rule:evenodd;clip-rule:evenodd;fill:#EEEFEE;}
	.st10{fill-rule:evenodd;clip-rule:evenodd;fill:#FEFEFE;}
	.st11{fill-rule:evenodd;clip-rule:evenodd;fill:#EE4D2D;}
	.st12{fill-rule:evenodd;clip-rule:evenodd;fill:url(#SVGID_1_);}
	.st13{fill-rule:evenodd;clip-rule:evenodd;fill:url(#SVGID_2_);}
	.st14{fill:#94BF3E;}
	.st15{fill:#FFFFFF;}
	.st16{fill:#2AAA5A;}
	.st17{fill:#E2127F;}
	.st18{fill:#F19123;}
	.st19{fill:#DF2228;}
	.st20{fill:#1E93D1;}
	.st21{fill:url(#SVGID_3_);}
	.st22{fill-rule:evenodd;clip-rule:evenodd;fill:url(#SVGID_4_);filter:url(#Adobe_OpacityMaskFilter);}
	.st23{mask:url(#id0_2_);fill:url(#SVGID_5_);}
	.st24{fill:url(#SVGID_6_);}
</style>
<path class="st11" d="M866.9,1039.1c45.3-1.2,81.8-37.6,85.3-84.1l1.2-4.4L985.4,301l0,0c0-11.1-8.8-20-18.8-20c-1.2,0-1.2,0-1.2,0
	H759.7C754.2,147.1,657.9,40.9,539.6,40.9C422.3,40.9,326,147.1,320.5,281H113.4c-10,0-18.8,8.8-18.8,20c0,0,0,0,0,1.2l30,646.3v7.7
	c4.4,45.3,37.6,80.9,81.8,83h657.3H866.9z M539.4,98.5c86.2,0,156,81.8,159.4,182.7H380C383.5,180.5,454.3,98.5,539.4,98.5z
	 M703.3,788.1c-5.6,47.6-35.3,86.2-80.9,105.1c-25.5,11.1-58.6,16.5-85.3,15.6c-42.1-2.3-81.8-12.1-118.3-30.9
	c-12.1-6.7-32.1-20-46.5-32.1c-4.4-2.3-4.4-4.4-2.3-8.8c1.2-1.2,4.4-5.6,10-13.3c7.7-11.1,8.8-13.3,10-14.4c2.3-3.3,6.7-4.4,10-1.2
	c1.2,0,1.2,0,1.2,1.2c1.2,0,1.2,0,2.3,1.2c1.2,1.2,2.3,2.3,3.3,2.3c38.8,30.9,84.1,48.6,130.6,49.7c63-1.2,109.5-28.8,117.4-73
	c10-48.6-28.8-89.7-103-112.9c-24.4-7.7-83-30.9-94.1-37.6c-50.9-28.8-74.1-68.6-70.9-116.2c4.4-67.4,67.4-117.4,146-117.4
	c35.3,0,70.9,7.7,104.1,20.9c12.1,5.6,33.2,16.5,40.9,22.1c4.4,3.3,4.4,6.7,2.3,11.1c-1.2,2.3-3.3,5.6-7.7,13.3l0,0
	c-6.7,10-6.7,10-7.7,12.1c-3.3,4.4-5.6,4.4-10,2.3c-36.5-24.4-76.4-36.5-120.6-37.6c-55.3,1.2-96.2,33.2-98.5,77.4
	c-1.2,39.8,28.8,69.7,94.1,91.8C662.4,660.7,712.1,709.3,703.3,788.1z"/>
</svg>
