<?xml version="1.0" encoding="utf-8"?>
<!-- Generator: Adobe Illustrator 24.0.1, SVG Export Plug-In . SVG Version: 6.00 Build 0)  -->
<svg version="1.1" id="Layer_1" xmlns="http://www.w3.org/2000/svg" xmlns:xlink="http://www.w3.org/1999/xlink" x="0px" y="0px"
	 viewBox="0 0 1080 1080" style="enable-background:new 0 0 1080 1080;" xml:space="preserve">
<style type="text/css">
	.st0{fill-rule:evenodd;clip-rule:evenodd;fill:#EC2B89;}
	.st1{fill-rule:evenodd;clip-rule:evenodd;fill:#00EFE8;}
	.st2{fill-rule:evenodd;clip-rule:evenodd;fill:#FFFFFF;}
	.st3{fill-rule:evenodd;clip-rule:evenodd;fill:#4D4C4B;}
	.st4{fill-rule:evenodd;clip-rule:evenodd;fill:#5FB74E;}
	.st5{fill-rule:evenodd;clip-rule:evenodd;fill:#89C45F;}
	.st6{fill-rule:evenodd;clip-rule:evenodd;fill:#4A9E4B;}
	.st7{fill-rule:evenodd;clip-rule:evenodd;fill:#FDF8B4;}
	.st8{fill-rule:evenodd;clip-rule:evenodd;fill:#FCD066;}
	.st9{fill-rule:evenodd;clip-rule:evenodd;fill:#EEEFEE;}
	.st10{fill-rule:evenodd;clip-rule:evenodd;fill:#FEFEFE;}
	.st11{fill-rule:evenodd;clip-rule:evenodd;fill:#EE4D2D;}
	.st12{fill-rule:evenodd;clip-rule:evenodd;fill:url(#SVGID_1_);}
	.st13{fill-rule:evenodd;clip-rule:evenodd;fill:url(#SVGID_2_);}
	.st14{fill:#94BF3E;}
	.st15{fill:#FFFFFF;}
	.st16{fill:#2AAA5A;}
	.st17{fill:#E2127F;}
	.st18{fill:#F19123;}
	.st19{fill:#DF2228;}
	.st20{fill:#1E93D1;}
	.st21{fill:url(#SVGID_3_);}
	.st22{fill-rule:evenodd;clip-rule:evenodd;fill:url(#SVGID_4_);filter:url(#Adobe_OpacityMaskFilter);}
	.st23{mask:url(#id0_2_);fill:url(#SVGID_5_);}
	.st24{fill:url(#SVGID_6_);}
</style>
<g>
	
		<linearGradient id="SVGID_1_" gradientUnits="userSpaceOnUse" x1="42.4941" y1="540.7097" x2="1030.917" y2="533.0552" gradientTransform="matrix(1 0 0 1 0 2.0649)">
		<stop  offset="0" style="stop-color:#FFB800"/>
		<stop  offset="0.3294" style="stop-color:#F28000"/>
		<stop  offset="0.5608" style="stop-color:#F73B72"/>
		<stop  offset="0.7804" style="stop-color:#FB1CBD"/>
		<stop  offset="0.9294" style="stop-color:#FD08ED"/>
		<stop  offset="1" style="stop-color:#FF00FF"/>
	</linearGradient>
	<path style="fill:url(#SVGID_1_);" d="M540.3,943.6c-7.1,0-14.1-1.8-20.2-5.2C467.5,908,78,663.8,63.4,656.4
		c-11.2-5.2-18.8-15.9-20.2-28.2V285.6c-0.3-12.8,6-24.8,16.7-31.9l2.8-1.6c37.7-23.3,163.8-100.3,183.7-111.5
		c4.5-2.8,9.9-4.2,15.1-4.2c5,0,9.9,1.3,14.2,3.6c0,0,176.6,115.1,203.4,125.3c18.9,8.7,39.7,13.1,60.5,12.6
		c23.6,0.5,46.9-5.2,67.7-16.5c26.4-13.9,195-120.9,196.8-120.9c4.2-2.6,9.1-3.9,14.1-3.9c5.3,0,10.5,1.5,15.1,4.2
		c23,12.6,179.3,108.4,186,112.6c11,6.6,17.6,18.6,17.5,31.4v342.5c-1.3,12.3-8.9,23-20.1,28.2c-14.7,8.1-403,252.3-456.6,282.1
		C554.4,941.5,547.5,943.5,540.3,943.6L540.3,943.6L540.3,943.6z"/>
	<defs>
		<filter id="Adobe_OpacityMaskFilter" filterUnits="userSpaceOnUse" x="538.4" y="268.9" width="498.6" height="674.7">
			<feColorMatrix  type="matrix" values="1 0 0 0 0  0 1 0 0 0  0 0 1 0 0  0 0 0 1 0"/>
		</filter>
	</defs>
	<mask maskUnits="userSpaceOnUse" x="538.4" y="268.9" width="498.6" height="674.7" id="id0_2_">
		
			<linearGradient id="SVGID_2_" gradientUnits="userSpaceOnUse" x1="321.4402" y1="862.3976" x2="1329.9781" y2="303.9791" gradientTransform="matrix(1 0 0 1 0 2.0649)">
			<stop  offset="0" style="stop-color:#FFFFFF"/>
			<stop  offset="1" style="stop-color:#FFFFFF;stop-opacity:0"/>
		</linearGradient>
		
			<rect x="538.1" y="268.4" style="fill-rule:evenodd;clip-rule:evenodd;fill:url(#SVGID_2_);filter:url(#Adobe_OpacityMaskFilter);" width="499.6" height="675.5"/>
	</mask>
	
		<linearGradient id="SVGID_3_" gradientUnits="userSpaceOnUse" x1="321.9987" y1="863.4064" x2="1330.5369" y2="304.988" gradientTransform="matrix(1 0 0 1 0 2.0649)">
		<stop  offset="0" style="stop-color:#ED0A3F"/>
		<stop  offset="1" style="stop-color:#ED0A3F"/>
	</linearGradient>
	<path style="mask:url(#id0_2_);fill:url(#SVGID_3_);" d="M538.4,943.6h1.9c7.1,0,14.1-1.8,20.1-5.2
		C613,908,1002.3,663.8,1017,656.4c11.2-5.2,18.9-15.9,20.1-28.2V285.6c0-5.8-1.3-11.5-3.9-16.7L538.4,540.6V943.6L538.4,943.6z"/>
	
		<linearGradient id="SVGID_4_" gradientUnits="userSpaceOnUse" x1="493.2413" y1="528.7496" x2="-53.7105" y2="730.0761" gradientTransform="matrix(1 0 0 1 0 2.0649)">
		<stop  offset="0" style="stop-color:#ED5B00"/>
		<stop  offset="8.627450e-02" style="stop-color:#F37D00"/>
		<stop  offset="0.149" style="stop-color:#EF6200"/>
		<stop  offset="0.502" style="stop-color:#FB8A00"/>
		<stop  offset="1" style="stop-color:#F9A000"/>
	</linearGradient>
	<path style="fill:url(#SVGID_4_);" d="M536.6,938.8h-1.9c-7,0-13.9-1.8-19.9-5.2c-52.1-30.1-437.1-271.7-451.7-279
		c-11.2-5.2-18.8-15.7-19.9-27.8V287.7c0-5.7,1.3-11.3,3.7-16.5L536.6,540V938.8L536.6,938.8z"/>
</g>
</svg>
