<?xml version="1.0" encoding="utf-8"?>
<!-- Generator: Adobe Illustrator 24.0.1, SVG Export Plug-In . SVG Version: 6.00 Build 0)  -->
<svg version="1.1" id="Layer_1" xmlns="http://www.w3.org/2000/svg" xmlns:xlink="http://www.w3.org/1999/xlink" x="0px" y="0px"
	 viewBox="0 0 1080 1080" style="enable-background:new 0 0 1080 1080;" xml:space="preserve">
<style type="text/css">
	.st0{fill-rule:evenodd;clip-rule:evenodd;fill:#EC2B89;}
	.st1{fill-rule:evenodd;clip-rule:evenodd;fill:#00EFE8;}
	.st2{fill-rule:evenodd;clip-rule:evenodd;fill:#FFFFFF;}
	.st3{fill-rule:evenodd;clip-rule:evenodd;fill:#4D4C4B;}
	.st4{fill-rule:evenodd;clip-rule:evenodd;fill:#5FB74E;}
	.st5{fill-rule:evenodd;clip-rule:evenodd;fill:#89C45F;}
	.st6{fill-rule:evenodd;clip-rule:evenodd;fill:#4A9E4B;}
	.st7{fill-rule:evenodd;clip-rule:evenodd;fill:#FDF8B4;}
	.st8{fill-rule:evenodd;clip-rule:evenodd;fill:#FCD066;}
	.st9{fill-rule:evenodd;clip-rule:evenodd;fill:#EEEFEE;}
	.st10{fill-rule:evenodd;clip-rule:evenodd;fill:#FEFEFE;}
	.st11{fill-rule:evenodd;clip-rule:evenodd;fill:#EE4D2D;}
	.st12{fill-rule:evenodd;clip-rule:evenodd;fill:url(#SVGID_1_);}
	.st13{fill-rule:evenodd;clip-rule:evenodd;fill:url(#SVGID_2_);}
	.st14{fill:#94BF3E;}
	.st15{fill:#FFFFFF;}
	.st16{fill:#2AAA5A;}
	.st17{fill:#E2127F;}
	.st18{fill:#F19123;}
	.st19{fill:#DF2228;}
	.st20{fill:#1E93D1;}
	.st21{fill:url(#SVGID_3_);}
	.st22{fill-rule:evenodd;clip-rule:evenodd;fill:url(#SVGID_4_);filter:url(#Adobe_OpacityMaskFilter);}
	.st23{mask:url(#id0_2_);fill:url(#SVGID_5_);}
	.st24{fill:url(#SVGID_6_);}
</style>
<g>
	<path class="st14" d="M561.1,54.8c-0.9-2-2-4.2-3.6-6.2c-1.6-1.6-3.3-3.3-5.2-4.5c-4.2-2.5-9.1-3.3-13.4-2.9
		c-2.5,0.4-4.5,0.9-6.9,2c-2,1.3-4.2,2.5-5.8,4.2s-2.9,3.6-4.2,5.8c-1.3,2-2,4.2-2.5,6.5l0,0c0,0-34.6-16.7-25.7,2.9
		c6.5,12.7,15,24.4,24.8,34.6c0,0,40.7-0.9,52.7-5.8c6.5-12.3,11.8-25.3,15-39.1C591,32,563.6,53.1,561.1,54.8"/>
	<path class="st15" d="M693.9,604.3c0,5.2,0,10.7-0.4,15.9c-0.9,10.7-2.9,21.2-5.8,31.3c-1.6,5.2-3.3,10.1-4.9,15
		c-2,4.9-4.2,9.8-6.5,14.7s-4.9,9.4-8.1,13.9c-3.3,4.5-6.2,8.5-9.4,13c-10.1,12.7-22.1,23.2-35.1,32.6c-4.5,2.9-9.1,5.8-13.4,8.1
		c-4.9,2.5-9.4,4.9-14.3,6.9s-9.8,4.2-15,5.2c-4.9,1.6-10.1,2.9-15.6,4.2c-5.2,0.9-10.7,2-15.9,2.5c-5.2,0.5-10.7,0.9-15.9,0.9
		c-5.2,0-10.7-0.4-15.9-0.9c-5.2-0.5-10.7-1.3-15.9-2.5c-5.2-1.3-10.7-2.5-15.6-4.2c-4.9-1.6-10.1-3.3-15-5.2s-9.8-4.5-14.3-6.9
		c-4.5-2.4-9.4-5.2-13.4-8.1c-4.5-2.9-8.5-6.2-12.7-9.8c-4.2-3.3-8.1-6.9-11.8-10.7c-3.6-3.6-6.9-7.8-10.1-11.8
		c-3.3-4-6.5-8.5-9.4-13s-5.8-9.1-8.1-13.9c-2.5-4.9-4.5-9.8-6.5-14.7c-2-4.9-3.6-10.1-5.2-15c-1.6-5.2-2.5-10.1-3.6-15.6
		c-0.9-5.2-1.6-10.7-2-15.9c-0.4-5.2-0.4-10.7-0.4-15.9c0-2.9,0.4-5.8,1.6-8.5c1.3-2.7,2.9-5.2,4.9-7.4c8.5-8.5,22.8-8.5,31.3,0
		c4.2,4.2,6.5,9.8,6.5,15.6l0,0c0,3.6,0,7.8,0.4,11.4c0.4,3.6,0.9,7.8,1.6,11.4c0.9,3.6,1.6,7.4,2.9,11s2.5,7.4,4.2,10.7
		c1.3,3.6,2.9,6.9,4.9,10.1c1.6,3.3,3.6,6.5,5.8,9.8c2.2,3.3,4.5,6.2,6.9,9.1c2.5,2.9,4.9,5.8,7.8,8.5s5.2,5.2,8.5,7.8
		c3.3,2.5,6.2,4.5,9.1,6.9c3.3,2,6.5,4.2,9.8,5.8c3.3,1.6,6.9,3.3,10.1,4.9c3.3,1.6,7.4,2.9,10.7,3.6c3.6,1.3,7.4,2,11,2.9
		c15,2.9,30.6,2.9,45.3,0c3.6-0.9,7.4-1.6,11-2.9c3.6-1.3,7.4-2.5,10.7-3.6c3.6-1.6,6.9-3.3,10.1-4.9c3.3-1.6,6.5-3.6,9.8-5.8
		c3.3-2,6.2-4.5,9.1-6.9c2.9-2.5,5.8-4.9,8.5-7.8s5.2-5.8,7.8-8.5c2.5-2.9,4.9-6.2,6.9-9.1c2-3.3,4.2-6.5,5.8-9.8
		c1.6-3.3,3.3-6.9,4.9-10.1c1.6-3.6,2.9-6.9,3.6-10.7c1.3-3.6,2-7.4,2.9-11c1.6-7.4,2-15,2.5-22.8l0,0c0-5.8,2.5-11.4,6.5-15.6
		c6.5-6.5,15.9-8.1,24.1-4.9c2.9,1.3,5.2,2.9,7.4,4.9C691.6,593.3,693.6,599.1,693.9,604.3"/>
	<path class="st14" d="M656.5,334.1l-21.2-183c-0.9-4.2-3.3-7.4-6.5-9.4l-73.9-35.5l-24.4,2.9c0,0-59.6,49.4-59.2,49.4l-1.6,1.6
		c-3.6,3.3-4.9,8.5-4.2,13l20.8,180.6L656.5,334.1L656.5,334.1z"/>
	<path class="st16" d="M622.6,98.7c-1.6-13-4.5-25.7-8.1-38.4l-52.7,29.3c-1.3-1.3-2.5-2-4.2-3.3c-1.6-0.9-3.3-1.6-4.5-2
		c-1.6-0.4-3.3-0.9-4.9-1.3c-1.6,0-3.3,0-5.2,0c-1.6,0-3.3,0.4-4.9,0.9c-3.3,0.9-6.5,2.9-9.1,4.9c-1.3,1.3-2.5,2.5-3.6,3.6
		l-55.9-17.9c-2,13.4-2.5,27.3-1.6,41.1c1.6,12.7,4.9,24.8,9.8,36.2l48.9-27.7c1.3,1.6,2.9,2.9,4.5,4.2s3.3,2,5.2,2.9
		c2,0.9,3.6,1.3,5.8,1.6c2,0.4,4.2,0.4,6.2,0c2-0.4,4.2-0.9,5.8-1.3c2-0.9,3.6-1.6,5.2-2.9c1.6-1.3,3.3-2.5,4.5-4.2
		c1.3-1.6,2.5-3.3,3.6-4.9l54.7,17.9C623.5,125,623.5,111.8,622.6,98.7"/>
	<path class="st17" d="M578.3,380c107.7-6.5,209.1-12.3,255.2-15h0.9h0.9h2.5l18.8-76.6c1.6-6.9-0.9-13.9-6.5-18.3
		c-1.6-1.3-4.2-2.5-6.2-2.9l-236-59.6c-2-0.4-4.5-0.9-6.9-0.4c-6.9,1.3-12.7,6.2-14.3,13l-40.7,161.5L578.3,380"/>
	<polyline class="st18" points="725.8,371.5 760,248.1 692,230.9 652,376.1 725.8,371.5 	"/>
	<path class="st18" d="M246.9,400.1c1.6-0.4,3.3-0.4,4.9-0.9c55.9-3.3,193.1-11.4,326.2-19.2l8.5-0.4l-30.2-136.5
		c-0.4-2-1.3-4.2-2.5-6.2c-1.3-1.6-2.9-3.3-4.9-4.5c-2-1.3-4.2-2-6.2-2.5s-4.5-0.4-6.5,0l-295.6,65.2c-2,0.4-4.2,1.3-6.2,2.5
		c-1.6,1.3-3.3,2.9-4.5,4.9c-1.3,2-2,4.2-2.5,6.2c-0.4,2-0.4,4.5,0,6.5L246.9,400.1L246.9,400.1z M818.3,225.3
		c-4.9,6.9-26.4,7.8-52.7,5.2c15.9-13,36.7-25.3,46.9-16.3C818.3,217.9,819.6,223.1,818.3,225.3 M653.6,195.4
		c-2.9-2.5-2.9-6.9-0.9-9.8c1.6-1.6,3.6-2.9,5.8-3.6c13-3.6,27.3,15.9,36.2,34.2C680.6,211.3,666.3,204.5,653.6,195.4 M832.2,210.4
		c-2-3.6-4.9-6.9-7.8-9.8c-26.4-22.8-67.7,12.7-81.5,26.1c-1.3-2-2.9-4.2-4.9-5.2c-2-1.6-4.2-2.5-6.5-3.3c-2.4-0.7-4.9-0.9-7.4-0.4
		c-2.5,0.4-4.9,1.3-6.9,2.5c-7.8-19.2-30.2-64.8-62.8-55.4c-4.2,1.3-7.8,3.3-11.4,5.8c-11,8.1-12.3,16.7-11.4,22.4
		c4.5,24.1,57.6,40.7,75.8,46c0.4,2,0.9,3.6,1.6,5.8c1.6,3.6,4.5,6.5,8.1,8.5c3.6,2,7.4,2.9,11.4,2.5c2-0.4,4.2-0.9,5.8-1.6
		c3.6-1.6,6.5-4.5,8.5-7.8h0.9c17.6,2.5,75.5,9.8,89.6-11C836.8,230.5,839.1,222,832.2,210.4"/>
	<polyline class="st15" points="465.3,214.2 466.1,213.7 465.3,214.2 	"/>
	<polyline class="st19" points="473.5,386.6 443.3,250.1 336.1,274.1 362.5,393.1 473.5,386.6 	"/>
	<path class="st19" d="M420.8,240.7c6.9-22.4,19.2-47.6,34.6-45.6c2.5,0.4,4.9,1.3,6.9,2c3.3,1.6,5.2,3.6,5.2,4.5
		C468.2,209.7,447.8,226,420.8,240.7 M291.6,245.5c-1.3-1.3-1.6-2.9-1.6-4.9c0-1.6,0.4-3.3,1.6-4.9c1.6-2,3.3-3.6,5.2-5.2
		c13.4-8.5,35.8,8.5,52.1,26.1C318.5,255.3,296.6,251.7,291.6,245.5 M473.1,177.5c-4.5-2.5-9.1-3.6-13.9-4.5
		c-38.4-4.5-55.4,48.5-61.9,73.9c-4.2-2-8.5-2.5-12.7-1.6c-2,0.4-4.2,1.3-6.2,2.5c-1.6,1.3-3.3,2.9-4.9,4.5
		c-16.3-19.5-55.9-60.8-88.5-39.5c-4.2,2.9-7.8,6.2-10.7,10.1c-9.8,13-8.1,22.8-4.9,29c13,26.1,82,26.4,102.8,25.7h4.9
		c1.3,0.9,2,1.6,3.3,2c1.3,0.4,2.5,0.9,3.6,1.3c1.3,0.4,2.9,0.4,4.2,0.4c1.3,0,2.9,0,4.2-0.4c1.3-0.4,2.5-0.9,3.6-1.3
		c1.1-0.4,2.5-1.3,3.3-2c1.3-0.9,2-1.6,2.9-2.5s1.6-2,2.5-3.3l4.9-2c18.8-8.5,80.4-39.5,80.7-69c0-6.9-2.9-16.7-17.6-24.1"/>
	<path class="st20" d="M862.8,1015.2c-31-139.7-51.4-396.6-7.4-613.1c-0.4-5.2-2.9-10.7-6.5-14.7c-2-2-4.2-3.6-6.5-4.5
		c-2.5-1.3-5.2-1.6-7.8-2c-102.8,6.2-480.6,28.6-581.2,34.2c-2.9,0-5.8,0.9-8.1,2c-2.5,1.3-4.9,2.9-6.5,4.9c-2,2-3.3,4.5-4.5,6.9
		c-1.3,2.5-1.6,5.2-1.6,8.1c0,0.4,0,0.9,0,1.3c22.8,131.6,30.6,363.6-16.3,579.2c0,2.5,0.4,4.9,1.6,7.4c0.9,2.5,2.5,4.5,4.2,6.5
		c3.3,3.6,7.8,6.5,12.7,7.4h610.2c2.5-0.4,4.9-1.3,7.4-2.5c2.5-1.3,4.5-2.9,6.2-4.9c3.3-4.2,5.2-9.1,5.2-14.3
		C862.8,1016.5,862.8,1016.1,862.8,1015.2"/>
	<path class="st15" d="M693.6,607.2c0,5.2-0.4,10.1-1.3,15.6c-0.4,4.9-1.6,10.1-2.5,15s-2.5,10.1-4.2,14.7
		c-1.6,4.5-3.3,9.8-5.2,14.3s-4.5,9.4-6.9,13.9c-2.5,4.5-5.2,9.1-8.1,13c-2.9,4.2-6.2,8.1-9.4,12.3c-3.3,4.2-6.9,7.8-10.7,11.4
		c-3.8,3.6-7.8,6.9-11.4,10.1c-4.2,3.3-8.1,6.2-12.7,9.1c-4.5,2.9-8.5,5.2-13.4,7.8c-4.5,2.5-9.4,4.5-13.9,6.5
		c-4.9,2-9.8,3.6-14.7,5.2c-4.9,1.6-9.8,2.9-15,3.6c-4.9,0.9-10.1,1.6-15.6,2c-5.2,0.4-10.1,0.9-15.6,0.9c-5.2,0-10.1-0.4-15.6-0.9
		c-5.2-0.4-10.1-1.3-15.6-2s-10.1-2-15-3.6c-4.9-1.6-9.8-3.3-14.7-5.2c-4.9-2-9.4-4.2-13.9-6.5c-4.5-2.5-9.1-4.9-13.4-7.8
		c-4.5-2.9-8.5-5.8-12.7-9.1c-4.2-3.3-7.8-6.5-11.4-10.1c-3.6-3.6-7.4-7.4-10.7-11.4c-3.3-4.2-6.5-8.1-9.4-12.3
		c-2.9-4.2-5.8-8.5-8.1-13c-2.5-4.5-4.9-9.1-6.9-13.9c-2-4.9-3.6-9.4-5.2-14.3c-1.6-4.9-2.9-9.8-4.2-14.7c-1.3-4.9-2-10.1-2.5-15
		c-0.9-4.9-0.9-10.1-1.3-15.6c0-2.9,0.4-5.8,1.6-8.5c1.3-2.7,2.9-4.9,4.9-7.4c2-2,4.5-3.6,7.4-4.9c11-4.5,24.1,0.9,28.6,11.8l0,0
		c1.3,2.9,1.6,5.8,1.6,8.5l0,0c0,3.6,0,7.8,0.4,11.4s0.9,7.4,1.6,11.4c0.9,3.6,1.6,7.4,2.9,11c1.3,3.6,2.5,7.4,3.6,10.7
		c1.3,3.6,3.3,6.9,4.9,10.1c1.6,3.3,3.6,6.5,5.8,9.8c2.2,3.3,4.5,6.2,6.9,9.1c2.5,2.9,4.9,5.8,7.8,8.5s5.2,5.2,8.5,7.8
		c3.3,2.5,6.2,4.5,9.1,6.9c3.3,2,6.5,4.2,9.8,5.8s6.5,3.3,10.1,4.9c3.6,1.6,6.9,2.9,10.7,3.6c3.6,1.3,7.4,2,11,2.9
		c3.6,0.9,7.4,1.3,11.4,1.6c3.6,0.4,7.8,0.4,11.4,0.4s7.8,0,11.4-0.4s7.4-0.9,11.4-1.6s7.4-1.6,11-2.9c3.6-1.3,7.4-2.5,10.7-3.6
		c3.6-1.6,6.9-3.3,10.1-4.9s6.5-3.6,9.8-5.8c3.3-2,6.2-4.5,9.1-6.9c2.9-2.5,5.8-4.9,8.5-7.8c2.7-2.9,5.2-5.2,7.8-8.5
		c2.5-3.3,4.5-6.2,6.9-9.1c2.5-2.9,4.2-6.5,5.8-9.8c1.6-3.3,3.3-6.9,4.9-10.1c1.6-3.6,2.9-6.9,3.6-10.7c1.3-3.6,2-7.4,2.9-11
		s1.3-7.4,1.6-11.4c0.4-4.2,0.4-7.8,0.4-11.4l0,0c0-5.8,2.5-11.4,6.5-15.6c2-2,4.5-3.6,7.4-4.9c5.2-2,11.4-2,16.7,0
		c2.9,1.3,4.9,2.9,7.4,4.9c2,2,3.6,4.5,4.9,7.4C693.2,601.4,693.6,604.3,693.6,607.2 M396.9,543.5c-2.9,0-5.8-0.4-8.5-1.6
		c-2.7-1.3-4.9-2.5-7.4-4.5c-6.2-6.2-8.1-15.9-4.9-24.1c2-5.2,6.5-9.8,11.8-11.8c2.9-1.3,5.8-1.6,8.5-1.6s5.8,0.4,8.5,1.6
		c2.7,1.3,4.9,2.9,7.4,4.9c2,2,3.6,4.5,4.9,7.4c4.5,11.4-0.9,24.1-12.3,29C402.5,543.1,399.6,543.5,396.9,543.5 M671.5,542.4
		c-2.9,0-6.2-0.4-8.5-1.6c-2.9-1.3-5.2-2.5-7.4-4.5c-2.2-2-3.6-4.5-4.9-7.4c-4.9-11,0.4-24.1,11.4-29c2.9-1.3,6.5-2,9.8-1.6
		c2.9,0,5.8,0.9,8.1,2s4.9,2.9,6.9,4.9c2,2,3.6,4.5,4.5,6.9c2,5.2,2,11,0,16.3C688,536.6,680.2,541.9,671.5,542.4"/>
</g>
</svg>
