<?xml version="1.0" encoding="utf-8"?>
<!-- Generator: Adobe Illustrator 24.0.1, SVG Export Plug-In . SVG Version: 6.00 Build 0)  -->
<svg version="1.1" id="Layer_1" xmlns="http://www.w3.org/2000/svg" xmlns:xlink="http://www.w3.org/1999/xlink" x="0px" y="0px"
	 viewBox="0 0 1080 1080" style="enable-background:new 0 0 1080 1080;" xml:space="preserve">
<style type="text/css">
	.st0{display:none;}
	.st1{display:inline;fill:url(#SVGID_1_);}
	.st2{display:inline;fill-rule:evenodd;clip-rule:evenodd;fill:url(#SVGID_2_);filter:url(#Adobe_OpacityMaskFilter);}
	.st3{display:inline;mask:url(#id0_1_);fill:url(#SVGID_3_);}
	.st4{display:inline;fill:url(#SVGID_4_);}
	.st5{fill:#FFFFFF;}
</style>
<g class="st0">
	
		<linearGradient id="SVGID_1_" gradientUnits="userSpaceOnUse" x1="42.5385" y1="539.2901" x2="1030.9614" y2="546.9446" gradientTransform="matrix(1 0 0 -1 0 1082.0649)">
		<stop  offset="0" style="stop-color:#FFB800"/>
		<stop  offset="0.3294" style="stop-color:#F28000"/>
		<stop  offset="0.5608" style="stop-color:#F73B72"/>
		<stop  offset="0.7804" style="stop-color:#FB1CBD"/>
		<stop  offset="0.9294" style="stop-color:#FD08ED"/>
		<stop  offset="1" style="stop-color:#FF00FF"/>
	</linearGradient>
	<path class="st1" d="M540.3,943.6c-7.1,0-14.1-1.8-20.2-5.2C467.5,908,78,663.8,63.4,656.4c-11.2-5.2-18.8-15.9-20.2-28.2V285.6
		c-0.3-12.8,6-24.8,16.7-31.9l2.8-1.6c37.7-23.3,163.8-100.3,183.7-111.5c4.5-2.8,9.9-4.2,15.1-4.2c5,0,9.9,1.3,14.2,3.6
		c0,0,176.6,115.1,203.4,125.3c18.9,8.7,39.7,13.1,60.5,12.6c23.6,0.5,46.9-5.2,67.7-16.5c26.4-13.9,195-120.9,196.8-120.9
		c4.2-2.6,9.1-3.9,14.1-3.9c5.3,0,10.5,1.5,15.1,4.2c23,12.6,179.3,108.4,186,112.6c11,6.6,17.6,18.6,17.5,31.4v342.5
		c-1.3,12.3-8.9,23-20.1,28.2c-14.7,8.1-403,252.3-456.6,282.1C554.4,941.5,547.5,943.5,540.3,943.6L540.3,943.6L540.3,943.6z"/>
	<defs>
		<filter id="Adobe_OpacityMaskFilter" filterUnits="userSpaceOnUse" x="538.4" y="268.9" width="498.7" height="674.7">
			<feColorMatrix  type="matrix" values="1 0 0 0 0  0 1 0 0 0  0 0 1 0 0  0 0 0 1 0"/>
		</filter>
	</defs>
	<mask maskUnits="userSpaceOnUse" x="538.4" y="268.9" width="498.7" height="674.7" id="id0_1_" style="display:inline;">
		
			<linearGradient id="SVGID_2_" gradientUnits="userSpaceOnUse" x1="321.4241" y1="217.6314" x2="1329.9622" y2="776.0499" gradientTransform="matrix(1 0 0 -1 0 1082.0649)">
			<stop  offset="0" style="stop-color:#FFFFFF"/>
			<stop  offset="1" style="stop-color:#FFFFFF;stop-opacity:0"/>
		</linearGradient>
		
			<rect x="538.1" y="268.4" style="fill-rule:evenodd;clip-rule:evenodd;fill:url(#SVGID_2_);filter:url(#Adobe_OpacityMaskFilter);" width="499.6" height="675.5"/>
	</mask>
	
		<linearGradient id="SVGID_3_" gradientUnits="userSpaceOnUse" x1="321.9732" y1="216.6397" x2="1330.5114" y2="775.058" gradientTransform="matrix(1 0 0 -1 0 1082.0649)">
		<stop  offset="0" style="stop-color:#ED0A3F"/>
		<stop  offset="1" style="stop-color:#ED0A3F"/>
	</linearGradient>
	<path class="st3" d="M538.4,943.6h1.9c7.1,0,14.1-1.8,20.1-5.2c52.6-30.4,441.9-274.6,456.6-282c11.2-5.2,18.9-15.9,20.1-28.2
		V285.6c0-5.8-1.3-11.5-3.9-16.7L538.4,540.6V943.6L538.4,943.6z"/>
	
		<linearGradient id="SVGID_4_" gradientUnits="userSpaceOnUse" x1="493.2474" y1="551.2338" x2="-53.7043" y2="349.9072" gradientTransform="matrix(1 0 0 -1 0 1082.0649)">
		<stop  offset="0" style="stop-color:#ED5B00"/>
		<stop  offset="8.627450e-02" style="stop-color:#F37D00"/>
		<stop  offset="0.149" style="stop-color:#EF6200"/>
		<stop  offset="0.502" style="stop-color:#FB8A00"/>
		<stop  offset="1" style="stop-color:#F9A000"/>
	</linearGradient>
	<path class="st4" d="M536.6,938.8h-1.9c-7,0-13.9-1.8-19.9-5.2c-52.1-30.1-437.1-271.7-451.7-279c-11.2-5.2-18.8-15.7-19.9-27.8
		V287.7c0-5.7,1.3-11.3,3.7-16.5L536.6,540V938.8L536.6,938.8z"/>
</g>
<g>
	<g>
		<path class="st5" d="M540,130.9c133.3,0,149,0.5,201.7,2.9c48.7,2.2,75.1,10.3,92.7,17.2c23.3,9.1,39.9,19.9,57.4,37.3
			c17.5,17.5,28.3,34.1,37.3,57.4c6.8,17.6,15,44,17.2,92.7c2.4,52.6,2.9,68.4,2.9,201.7s-0.5,149-2.9,201.7
			c-2.2,48.7-10.3,75.1-17.2,92.7c-9.1,23.3-19.9,39.9-37.3,57.4c-17.5,17.5-34.1,28.3-57.4,37.3c-17.6,6.8-44,15-92.7,17.2
			c-52.6,2.4-68.4,2.9-201.7,2.9c-133.3,0-149-0.5-201.7-2.9c-48.7-2.2-75.1-10.3-92.7-17.2c-23.3-9.1-39.9-19.9-57.4-37.3
			c-17.5-17.5-28.3-34.1-37.3-57.4c-6.8-17.6-15-44-17.2-92.7c-2.4-52.6-2.9-68.4-2.9-201.7s0.5-149,2.9-201.7
			c2.2-48.7,10.3-75.1,17.2-92.7c9.1-23.3,19.9-39.9,37.3-57.4c17.5-17.5,34.1-28.3,57.4-37.3c17.6-6.8,44-15,92.7-17.2
			C391,131.4,406.7,130.9,540,130.9 M540,40.9c-135.5,0-152.5,0.6-205.8,3c-53.1,2.4-89.4,10.9-121.1,23.2
			c-32.8,12.8-60.6,29.8-88.4,57.6c-27.7,27.7-44.8,55.6-57.6,88.4c-12.3,31.7-20.8,68-23.2,121.1c-2.4,53.2-3,70.2-3,205.8
			c0,135.5,0.6,152.5,3,205.8c2.4,53.1,10.9,89.4,23.2,121.1c12.8,32.8,29.8,60.6,57.6,88.4c27.7,27.7,55.6,44.8,88.4,57.6
			c31.7,12.3,68,20.8,121.1,23.2c53.2,2.4,70.2,3,205.8,3c135.5,0,152.5-0.6,205.8-3c53.1-2.4,89.4-10.9,121.1-23.2
			c32.8-12.8,60.6-29.8,88.4-57.6c27.7-27.7,44.8-55.6,57.6-88.4c12.3-31.7,20.8-68,23.2-121.1c2.4-53.2,3-70.2,3-205.8
			s-0.6-152.5-3-205.8c-2.4-53.1-10.9-89.4-23.2-121.1c-12.8-32.8-29.8-60.6-57.6-88.4c-27.7-27.7-55.6-44.8-88.4-57.6
			c-31.7-12.3-68-20.8-121.1-23.2C692.5,41.5,675.5,40.9,540,40.9L540,40.9z"/>
		<path class="st5" d="M540,283.7c-141.5,0-256.3,114.7-256.3,256.3S398.5,796.3,540,796.3c141.5,0,256.3-114.7,256.3-256.3
			S681.5,283.7,540,283.7z M540,706.4c-91.9,0-166.4-74.5-166.4-166.4S448.1,373.6,540,373.6S706.4,448.1,706.4,540
			S631.9,706.4,540,706.4z"/>
		<circle class="st5" cx="806.4" cy="273.6" r="59.9"/>
	</g>
</g>
</svg>
