<?xml version="1.0" encoding="utf-8"?>
<!-- Generator: Adobe Illustrator 24.0.1, SVG Export Plug-In . SVG Version: 6.00 Build 0)  -->
<svg version="1.1" id="Layer_1" xmlns="http://www.w3.org/2000/svg" xmlns:xlink="http://www.w3.org/1999/xlink" x="0px" y="0px"
	 viewBox="0 0 1080 1080" style="enable-background:new 0 0 1080 1080;" xml:space="preserve">
<style type="text/css">
	.st0{fill-rule:evenodd;clip-rule:evenodd;fill:#EC2B89;}
	.st1{fill-rule:evenodd;clip-rule:evenodd;fill:#00EFE8;}
	.st2{fill-rule:evenodd;clip-rule:evenodd;fill:#FFFFFF;}
	.st3{fill-rule:evenodd;clip-rule:evenodd;fill:#4D4C4B;}
	.st4{fill-rule:evenodd;clip-rule:evenodd;fill:#5FB74E;}
	.st5{fill-rule:evenodd;clip-rule:evenodd;fill:#89C45F;}
	.st6{fill-rule:evenodd;clip-rule:evenodd;fill:#4A9E4B;}
	.st7{fill-rule:evenodd;clip-rule:evenodd;fill:#FDF8B4;}
	.st8{fill-rule:evenodd;clip-rule:evenodd;fill:#FCD066;}
	.st9{fill-rule:evenodd;clip-rule:evenodd;fill:#EEEFEE;}
	.st10{fill-rule:evenodd;clip-rule:evenodd;fill:#FEFEFE;}
	.st11{fill-rule:evenodd;clip-rule:evenodd;fill:#EE4D2D;}
	.st12{fill-rule:evenodd;clip-rule:evenodd;fill:url(#SVGID_1_);}
	.st13{fill-rule:evenodd;clip-rule:evenodd;fill:url(#SVGID_2_);}
	.st14{fill:#94BF3E;}
	.st15{fill:#FFFFFF;}
	.st16{fill:#2AAA5A;}
	.st17{fill:#E2127F;}
	.st18{fill:#F19123;}
	.st19{fill:#DF2228;}
	.st20{fill:#1E93D1;}
	.st21{fill:url(#SVGID_3_);}
	.st22{fill-rule:evenodd;clip-rule:evenodd;fill:url(#SVGID_4_);filter:url(#Adobe_OpacityMaskFilter);}
	.st23{mask:url(#id0_2_);fill:url(#SVGID_5_);}
	.st24{fill:url(#SVGID_6_);}
</style>
<g>
	
		<radialGradient id="SVGID_1_" cx="-2799.5566" cy="1045.0548" r="135.8776" gradientTransform="matrix(2.3302 -1.3326 1.3326 2.3302 6150.1846 -6134.748)" gradientUnits="userSpaceOnUse">
		<stop  offset="0" style="stop-color:#FFFFFF"/>
		<stop  offset="0.502" style="stop-color:#FF0000"/>
		<stop  offset="0.502" style="stop-color:#FF7F7F"/>
		<stop  offset="1" style="stop-color:#FF0000"/>
	</radialGradient>
	<path class="st12" d="M540,40.9c275.6,0,499.1,223.5,499.1,499.1S815.6,1039.1,540,1039.1S40.9,815.6,40.9,540S264.4,40.9,540,40.9
		L540,40.9z"/>
	
		<linearGradient id="SVGID_2_" gradientUnits="userSpaceOnUse" x1="718.3102" y1="348.1385" x2="85.9675" y2="1214.9673" gradientTransform="matrix(1 0 0 1 -4.731548e-02 1.97)">
		<stop  offset="0" style="stop-color:#FFFFFF"/>
		<stop  offset="1" style="stop-color:#FF0000"/>
	</linearGradient>
	<path class="st13" d="M464,642.2c-85.4-18.6-137-97.2-122.4-187c12.7-78.4,81.2-130.3,158.9-130.7l28.4,3.3
		c66.5,13.1,120.8,73.1,123.9,150.2C652.9,582.7,570.2,665.4,464,642.2L464,642.2z M286.5,339.9
		c-131.3,202.7,47.9,445.9,269.2,396.4c16.8-3.7,32.6-8.8,47.9-15.6c7.5-3.3,14.9-6.8,22.1-10.9c13.8-8.3,23.2-14.5,38.7-27.1
		c7.2-5.9,9.2-11.6,19.5-12.5c7.2,1.8,17.1,35.5,56,32.6c23.9-1.8,41.2-20.4,46.4-41.2v-22.6c-3.9-42-7.5-83-14.7-124.6
		c-9.2-52.8-26.7-126.8-56-169.7c-47.3-69.2-100.5-98.7-179.9-114.3C441.3,216.2,338.4,259.6,286.5,339.9L286.5,339.9z M796.1,336.6
		c12.9,47.3,26.1,101.4,32.4,153.5l11,100c1.5,31.1-0.7,46.2,10.1,72.5c13.3,19.5,46.2,35,74.7,7c45.5-44.6-22.6-326.2-44.2-387.5
		c-15.3-43.3-42.5-119.9-69.2-141c-12-9.6-49.2-36.5-74.6-29.8c-30.2,7.7-2,51.5,5.5,69.8C758.2,220.2,788.2,296.1,796.1,336.6
		L796.1,336.6L796.1,336.6z"/>
</g>
</svg>
