<?xml version="1.0" encoding="utf-8"?>
<!-- Generator: Adobe Illustrator 24.0.1, SVG Export Plug-In . SVG Version: 6.00 Build 0)  -->
<svg version="1.1" id="Layer_1" xmlns="http://www.w3.org/2000/svg" xmlns:xlink="http://www.w3.org/1999/xlink" x="0px" y="0px"
	 viewBox="0 0 1080 1080" style="enable-background:new 0 0 1080 1080;" xml:space="preserve">
<style type="text/css">
	.st0{fill-rule:evenodd;clip-rule:evenodd;fill:#EC2B89;}
	.st1{fill-rule:evenodd;clip-rule:evenodd;fill:#00EFE8;}
	.st2{fill-rule:evenodd;clip-rule:evenodd;fill:#FFFFFF;}
	.st3{fill-rule:evenodd;clip-rule:evenodd;fill:#4D4C4B;}
	.st4{fill-rule:evenodd;clip-rule:evenodd;fill:#5FB74E;}
	.st5{fill-rule:evenodd;clip-rule:evenodd;fill:#89C45F;}
	.st6{fill-rule:evenodd;clip-rule:evenodd;fill:#4A9E4B;}
	.st7{fill-rule:evenodd;clip-rule:evenodd;fill:#FDF8B4;}
	.st8{fill-rule:evenodd;clip-rule:evenodd;fill:#FCD066;}
	.st9{fill-rule:evenodd;clip-rule:evenodd;fill:#EEEFEE;}
	.st10{fill-rule:evenodd;clip-rule:evenodd;fill:#FEFEFE;}
	.st11{fill-rule:evenodd;clip-rule:evenodd;fill:#EE4D2D;}
	.st12{fill-rule:evenodd;clip-rule:evenodd;fill:url(#SVGID_1_);}
	.st13{fill-rule:evenodd;clip-rule:evenodd;fill:url(#SVGID_2_);}
	.st14{fill:#94BF3E;}
	.st15{fill:#FFFFFF;}
	.st16{fill:#2AAA5A;}
	.st17{fill:#E2127F;}
	.st18{fill:#F19123;}
	.st19{fill:#DF2228;}
	.st20{fill:#1E93D1;}
	.st21{fill:url(#SVGID_3_);}
	.st22{fill-rule:evenodd;clip-rule:evenodd;fill:url(#SVGID_4_);filter:url(#Adobe_OpacityMaskFilter);}
	.st23{mask:url(#id0_2_);fill:url(#SVGID_5_);}
	.st24{fill:url(#SVGID_6_);}
</style>
<g id="Layer_x0020_1">
	<g id="_2140156135296">
		<path class="st3" d="M540.2,271.5c46.9-23.5,103.9-36.3,155.9-40.8l58.5-5.2c64.1-5.6,128.3-2.2,192.6-2.2h35.4v35.2
			c0,156.3,0,312.9,0,469.2v17.9c0,161.5-132.1,293.4-293.7,293.4H97.4V223.6h35.2c64.3,0,128.3-4.1,192.6,0.6l58.5,4.5
			C439.4,232.9,490.3,246.5,540.2,271.5L540.2,271.5z"/>
		<path class="st4" d="M132.6,258.8v401.8V728v17.9v258.2h258.2h40.6H689c142.1,0,258.2-116.2,258.2-258.2V728
			c0-155.5,0-307.3,0-469.2c-61.8,0-127-1.5-189.6,1.9l-58.5,5c-57.2,6.9-115.3,20.3-159.1,45.8c-47.5-27.4-99.1-41-158.9-47.7
			l-58.5-4.5C258.7,256.4,193.2,258.8,132.6,258.8z"/>
		<path class="st5" d="M205.8,1004.1H391h40.6H689c63,0,120.7-22.9,165.6-60.5C802.1,821.9,681,736.6,539.8,736.6
			C376.5,736.4,239.9,851,205.8,1004.1L205.8,1004.1z"/>
		<path class="st6" d="M540,1004.1l152-2.4c62.2,0,118.5-21.8,162.6-58.3c56.8-46.9,92.6-117.7,92.6-197.8V728
			c0-155.5,0-307.3,0-469.2c-61.8,0-127-1.5-189.6,1.9l-58.5,5c-57.2,6.9-115.3,20.3-159.1,45.8L540,1004.1L540,1004.1z"/>
		<path class="st4" d="M540,1004.1h150.1c63,0,119.8-22.9,164.7-60.5C803,823.2,679.1,738.3,540,736.6V1004.1L540,1004.1z"/>
		<path class="st3" d="M757.9,236.5C746.6,126.6,653.8,40.9,541.1,40.9c-112.9,0-205.8,84.9-218.5,194.1l58.5,4.5
			c10.4-79,77.7-139.9,159.6-139.9c81.8,0,149.8,62,158.5,141.9L757.9,236.5L757.9,236.5z"/>
		<path class="st3" d="M635.2,770.7c-25.5,27-51,54-76.4,81L540,871.5l-18.8-19.9c-25.5-27-51-54-76.4-81l-13.2-14l9.7-16.6
			c20.5-35.2,58.7-54.2,98.9-54.2c40.2,0,78.4,19,98.9,54.2l9.7,16.6L635.2,770.7L635.2,770.7z"/>
		<path class="st7" d="M616.4,753.2c-25.5,27-51,54-76.4,81c-25.5-27-51-54-76.4-81c16.2-27.9,46.4-41.5,76.4-41.5
			C570.2,711.5,600.5,725.4,616.4,753.2z"/>
		<path class="st8" d="M616.4,753.2c-25.5,27-51,54-76.4,81V711.8C570.2,711.5,600.5,725.4,616.4,753.2z"/>
		<path class="st3" d="M348.9,360.5c114.2,0,207.1,92.6,207.1,207.1s-92.6,207.1-207.1,207.1S142.1,682,142.1,567.5
			S234.5,360.5,348.9,360.5z"/>
		<path class="st9" d="M348.9,395.7c94.8,0,171.7,76.9,171.7,171.7S443.7,739,348.9,739s-171.7-76.9-171.7-171.7
			S253.9,395.7,348.9,395.7z"/>
		<path class="st10" d="M348.9,395.7c78.4,0,144.2,52.5,165,123.9c-20.7,71.7-86.8,123.9-165,123.9s-144.2-52.5-165-123.9
			C204.5,447.9,270.5,395.7,348.9,395.7z"/>
		<path class="st3" d="M731.1,360.5c114.2,0,207.1,92.6,207.1,207.1s-92.6,207.1-207.1,207.1C616.9,774.6,524,682,524,567.5
			C524.2,453.1,616.9,360.5,731.1,360.5z"/>
		<path class="st9" d="M731.1,395.7c94.8,0,171.7,76.9,171.7,171.7S825.9,739,731.1,739s-171.7-76.9-171.7-171.7
			S636.3,395.7,731.1,395.7z"/>
		<path class="st10" d="M731.1,395.7c78.4,0,144.5,52.5,165,123.9c-20.7,71.7-86.8,123.9-165,123.9c-78.4,0-144.2-52.5-165-123.9
			C586.9,447.9,652.9,395.7,731.1,395.7z"/>
		<path class="st3" d="M370.5,460.4c61.3,0,111,49.7,111,110.8c0,61.3-49.7,111-111,111s-111-49.7-111-111
			c0-20.5,5.6-39.5,15.1-55.9c8,19.6,27.2,33.3,49.7,33.3c29.4,0,53.3-24,53.3-53.3c0-13.4-4.8-25.3-12.7-34.8
			C366.6,460.4,368.6,460.4,370.5,460.4L370.5,460.4z"/>
		<path class="st3" d="M709.5,460.4c61.3,0,111,49.7,111,110.8c0,61.3-49.7,111-111,111s-111-49.7-111-111
			c0-20.5,5.6-39.5,15.1-55.9c8,19.6,27.2,33.3,49.7,33.3c29.6,0,53.3-24,53.3-53.3c0-13.4-4.8-25.3-12.7-34.8
			C705.8,460.4,707.6,460.4,709.5,460.4L709.5,460.4z"/>
	</g>
</g>
</svg>
