<svg xmlns="http://www.w3.org/2000/svg" viewBox="0 0 998.2 998.2"><title>logo ig blk</title><g id="Layer_2" data-name="Layer 2"><g id="Layer_1-2" data-name="Layer 1"><path d="M499.1,90c133.3,0,149,.5,201.7,2.9,48.7,2.2,75.1,10.3,92.7,17.2,23.3,9.1,39.9,19.9,57.4,37.3s28.3,34.1,37.3,57.4c6.8,17.6,15,44,17.2,92.7,2.4,52.6,2.9,68.4,2.9,201.7s-.5,149-2.9,201.7c-2.2,48.7-10.3,75.1-17.2,92.7-9.1,23.3-19.9,39.9-37.3,57.4s-34.1,28.3-57.4,37.3c-17.6,6.8-44,15-92.7,17.2-52.6,2.4-68.4,2.9-201.7,2.9s-149-.5-201.7-2.9c-48.7-2.2-75.1-10.3-92.7-17.2-23.3-9.1-39.9-19.9-57.4-37.3S119,816.9,110,793.6c-6.8-17.6-15-44-17.2-92.7-2.4-52.6-2.9-68.4-2.9-201.7s.5-149,2.9-201.7c2.2-48.7,10.3-75.1,17.2-92.7,9.1-23.3,19.9-39.9,37.3-57.4s34.1-28.3,57.4-37.3c17.6-6.8,44-15,92.7-17.2,52.7-2.4,68.4-2.9,201.7-2.9m0-90C363.6,0,346.6.6,293.3,3c-53.1,2.4-89.4,10.9-121.1,23.2C139.4,39,111.6,56,83.8,83.8S39,139.4,26.2,172.2C13.9,203.9,5.4,240.2,3,293.3S0,363.5,0,499.1.6,651.6,3,704.9C5.4,758,13.9,794.3,26.2,826,39,858.8,56,886.6,83.8,914.4s55.6,44.8,88.4,57.6c31.7,12.3,68,20.8,121.1,23.2s70.2,3,205.8,3,152.5-.6,205.8-3C758,992.8,794.3,984.3,826,972c32.8-12.8,60.6-29.8,88.4-57.6S959.2,858.8,972,826c12.3-31.7,20.8-68,23.2-121.1s3-70.2,3-205.8-.6-152.5-3-205.8c-2.4-53.1-10.9-89.4-23.2-121.1-12.8-32.8-29.8-60.6-57.6-88.4S858.8,39,826,26.2C794.3,13.9,758,5.4,704.9,3,651.6.6,634.6,0,499.1,0Z"/><path d="M499.1,242.8c-141.5,0-256.3,114.7-256.3,256.3S357.6,755.4,499.1,755.4,755.4,640.7,755.4,499.1,640.6,242.8,499.1,242.8Zm0,422.7A166.4,166.4,0,1,1,665.5,499.1,166.4,166.4,0,0,1,499.1,665.5Z"/><circle cx="765.5" cy="232.7" r="59.9"/></g></g></svg>