<svg xmlns="http://www.w3.org/2000/svg" viewBox="0 0 1080 1080"><defs><style>.cls-1{fill:#ec2b89;}.cls-1,.cls-2,.cls-3{fill-rule:evenodd;}.cls-2{fill:#00efe8;}.cls-3{fill:#fff;}</style></defs><title>tiktok</title><g id="Layer_2" data-name="Layer 2"><g id="Layer_1-2" data-name="Layer 1"><rect width="1080" height="1080" rx="121.12"/><path class="cls-1" d="M913.25,345.5c-104.79,0-189.77-85-189.77-189.77H581.17V706.25a115.94,115.94,0,1,1-231.88,0c0-64,52.06-115.85,116-115.85,11.9,0,25.6,1.7,36.32,5.1V450.64a258.23,258.23,0,0,0-36.32-2.55c-142.57,0-258.26,115.6-258.26,258.25S322.67,964.59,465.32,964.59,723.57,849,723.57,706.34V414.83a300,300,0,0,0,189.77,67.63l-.09-137Z"/><path class="cls-2" d="M872.94,305.18c-104.8,0-189.78-85-189.78-189.77H540.85V665.94A115.94,115.94,0,1,1,424.91,550c11.91,0,25.6,1.71,36.32,5.11V410.24a258.23,258.23,0,0,0-36.32-2.55c-142.56,0-258.25,115.6-258.25,258.25s115.6,258.25,258.25,258.25,258.25-115.6,258.25-258.25V374.51a300,300,0,0,0,189.78,67.63v-137Z"/><path class="cls-3" d="M872.94,341.25a189.66,189.66,0,0,1-112.46-73,190.47,190.47,0,0,1-73-112.46H581.17V706.34a116,116,0,0,1-215.63,59.37,116,116,0,0,1,59.37-215.63c11.91,0,25.6,1.7,36.32,5.1V448.09C320.37,450.05,207,564.88,207,706.34A258,258,0,0,0,263.55,867.7a257,257,0,0,0,161.36,56.57c142.57,0,258.25-115.6,258.25-258.25V374.51a300,300,0,0,0,189.78,67.63V341.25Z"/></g></g></svg>